# xmcd
#
# Track frame offsets:
#	150
#	14541
#	27674
#	44721
#	69237
#	83947
#	102768
#	121998
#
# Disc length: 1774 seconds
#
# Revision: 2
# Processed by: cddbd v1.5.2PL0 Copyright (c) Steve Scherf et al.
# Submitted via: EZCDDA 4.3.2
#
DISCID=6806ec08
DTITLE=Vendetta - Hate
DYEAR=1900
DGENRE=
TTITLE0=Hannibal
TTITLE1=Lying Society
TTITLE2=Guerilla
TTITLE3=Hate
TTITLE4=Prepare Yourself For Hostility
TTITLE5=Mother
TTITLE6=Rise For Revolution
TTITLE7=Dead People Are Cool
EXTD=
EXTT0=
EXTT1=
EXTT2=
EXTT3=
EXTT4=
EXTT5=
EXTT6=
EXTT7=
PLAYORDER=
